<mxfile host="app.diagrams.net" modified="2024-05-25T19:07:01.316Z" agent="Mozilla/5.0 (Macintosh; Intel Mac OS X 10_15_7) AppleWebKit/537.36 (KHTML, like Gecko) Chrome/124.0.0.0 Safari/537.36" etag="7Ki1KaQ2LeoGyfQCBszO" version="24.4.8" type="device">
  <diagram name="Page-1" id="-ZYCApN5Wwl5NKDxl_Fw">
    <mxGraphModel dx="1434" dy="795" grid="1" gridSize="10" guides="1" tooltips="1" connect="1" arrows="1" fold="1" page="1" pageScale="1" pageWidth="850" pageHeight="1100" math="0" shadow="0">
      <root>
        <mxCell id="0" />
        <mxCell id="1" parent="0" />
        <mxCell id="LBr9hsCO0pmCrkEfYy0i-32" value="" style="group" parent="1" vertex="1" connectable="0">
          <mxGeometry x="40" y="330" width="400" height="670" as="geometry" />
        </mxCell>
        <mxCell id="LBr9hsCO0pmCrkEfYy0i-30" value="" style="rounded=0;whiteSpace=wrap;html=1;fillColor=none;" parent="LBr9hsCO0pmCrkEfYy0i-32" vertex="1">
          <mxGeometry width="400" height="670" as="geometry" />
        </mxCell>
        <mxCell id="LBr9hsCO0pmCrkEfYy0i-31" value="1" style="ellipse;whiteSpace=wrap;html=1;aspect=fixed;fontSize=27;fontStyle=1;spacing=2;spacingLeft=2;spacingTop=1;" parent="LBr9hsCO0pmCrkEfYy0i-32" vertex="1">
          <mxGeometry x="10" y="10.880877650992955" width="47.103155911446066" height="47.103155911446066" as="geometry" />
        </mxCell>
        <mxCell id="LBr9hsCO0pmCrkEfYy0i-33" value="Servers" style="text;html=1;align=center;verticalAlign=middle;whiteSpace=wrap;rounded=0;" parent="LBr9hsCO0pmCrkEfYy0i-32" vertex="1">
          <mxGeometry x="290" y="634.9994024815934" width="60" height="29.919920213546092" as="geometry" />
        </mxCell>
        <mxCell id="LBr9hsCO0pmCrkEfYy0i-34" value="Load balancer" style="text;html=1;align=center;verticalAlign=middle;whiteSpace=wrap;rounded=0;" parent="LBr9hsCO0pmCrkEfYy0i-32" vertex="1">
          <mxGeometry x="129" y="635" width="90" height="29.92" as="geometry" />
        </mxCell>
        <mxCell id="LBr9hsCO0pmCrkEfYy0i-35" value="User" style="text;html=1;align=center;verticalAlign=middle;whiteSpace=wrap;rounded=0;" parent="LBr9hsCO0pmCrkEfYy0i-32" vertex="1">
          <mxGeometry x="-11.45" y="635" width="90" height="29.92" as="geometry" />
        </mxCell>
        <mxCell id="LBr9hsCO0pmCrkEfYy0i-1" value="&lt;div style=&quot;font-size: 8px;&quot;&gt;&lt;font style=&quot;font-size: 8px;&quot;&gt;&lt;br style=&quot;&quot;&gt;&lt;/font&gt;&lt;/div&gt;v1" style="verticalLabelPosition=middle;html=1;verticalAlign=top;strokeWidth=1;align=center;outlineConnect=0;dashed=0;outlineConnect=0;shape=mxgraph.aws3d.dataServer;strokeColor=#6c8ebf;aspect=fixed;fillColor=#dae8fc;labelPosition=center;fontStyle=1;fontSize=33;" parent="1" vertex="1">
          <mxGeometry x="300" y="340" width="123" height="106" as="geometry" />
        </mxCell>
        <mxCell id="LBr9hsCO0pmCrkEfYy0i-4" value="&lt;div style=&quot;font-size: 8px;&quot;&gt;&lt;font style=&quot;font-size: 8px;&quot;&gt;&lt;br style=&quot;&quot;&gt;&lt;/font&gt;&lt;/div&gt;v1" style="verticalLabelPosition=middle;html=1;verticalAlign=top;strokeWidth=1;align=center;outlineConnect=0;dashed=0;outlineConnect=0;shape=mxgraph.aws3d.dataServer;strokeColor=#6c8ebf;aspect=fixed;fillColor=#dae8fc;labelPosition=center;fontStyle=1;fontSize=33;" parent="1" vertex="1">
          <mxGeometry x="302" y="431.09000000000003" width="123" height="106" as="geometry" />
        </mxCell>
        <mxCell id="LBr9hsCO0pmCrkEfYy0i-5" value="&lt;div style=&quot;font-size: 8px;&quot;&gt;&lt;font style=&quot;font-size: 8px;&quot;&gt;&lt;br style=&quot;&quot;&gt;&lt;/font&gt;&lt;/div&gt;v1" style="verticalLabelPosition=middle;html=1;verticalAlign=top;strokeWidth=1;align=center;outlineConnect=0;dashed=0;outlineConnect=0;shape=mxgraph.aws3d.dataServer;strokeColor=#6c8ebf;aspect=fixed;fillColor=#dae8fc;labelPosition=center;fontStyle=1;fontSize=33;" parent="1" vertex="1">
          <mxGeometry x="300" y="520" width="123" height="106" as="geometry" />
        </mxCell>
        <mxCell id="LBr9hsCO0pmCrkEfYy0i-9" style="edgeStyle=orthogonalEdgeStyle;rounded=0;orthogonalLoop=1;jettySize=auto;html=1;" parent="1" source="LBr9hsCO0pmCrkEfYy0i-6" target="LBr9hsCO0pmCrkEfYy0i-1" edge="1">
          <mxGeometry relative="1" as="geometry" />
        </mxCell>
        <mxCell id="LBr9hsCO0pmCrkEfYy0i-10" style="edgeStyle=orthogonalEdgeStyle;rounded=0;orthogonalLoop=1;jettySize=auto;html=1;" parent="1" source="LBr9hsCO0pmCrkEfYy0i-6" target="LBr9hsCO0pmCrkEfYy0i-4" edge="1">
          <mxGeometry relative="1" as="geometry" />
        </mxCell>
        <mxCell id="LBr9hsCO0pmCrkEfYy0i-11" style="edgeStyle=orthogonalEdgeStyle;rounded=0;orthogonalLoop=1;jettySize=auto;html=1;" parent="1" source="LBr9hsCO0pmCrkEfYy0i-6" target="LBr9hsCO0pmCrkEfYy0i-5" edge="1">
          <mxGeometry relative="1" as="geometry" />
        </mxCell>
        <mxCell id="LBr9hsCO0pmCrkEfYy0i-6" value="" style="verticalLabelPosition=bottom;html=1;verticalAlign=top;strokeWidth=1;align=center;outlineConnect=0;dashed=0;outlineConnect=0;shape=mxgraph.aws3d.elasticLoadBalancing;fillColor=#ECECEC;strokeColor=#5E5E5E;aspect=fixed;" parent="1" vertex="1">
          <mxGeometry x="160" y="440.01" width="92" height="88.17" as="geometry" />
        </mxCell>
        <mxCell id="LBr9hsCO0pmCrkEfYy0i-8" style="edgeStyle=orthogonalEdgeStyle;rounded=0;orthogonalLoop=1;jettySize=auto;html=1;" parent="1" source="LBr9hsCO0pmCrkEfYy0i-7" target="LBr9hsCO0pmCrkEfYy0i-6" edge="1">
          <mxGeometry relative="1" as="geometry" />
        </mxCell>
        <mxCell id="LBr9hsCO0pmCrkEfYy0i-7" value="" style="verticalLabelPosition=bottom;html=1;verticalAlign=top;strokeWidth=1;align=center;outlineConnect=0;dashed=0;outlineConnect=0;shape=mxgraph.aws3d.end_user;strokeColor=none;fillColor=#777777;aspect=fixed;" parent="1" vertex="1">
          <mxGeometry x="50" y="433.86" width="49" height="100.46" as="geometry" />
        </mxCell>
        <mxCell id="LBr9hsCO0pmCrkEfYy0i-36" value="" style="group" parent="1" vertex="1" connectable="0">
          <mxGeometry x="460" y="330" width="400" height="670" as="geometry" />
        </mxCell>
        <mxCell id="LBr9hsCO0pmCrkEfYy0i-37" value="" style="rounded=0;whiteSpace=wrap;html=1;fillColor=none;" parent="LBr9hsCO0pmCrkEfYy0i-36" vertex="1">
          <mxGeometry width="400" height="670" as="geometry" />
        </mxCell>
        <mxCell id="LBr9hsCO0pmCrkEfYy0i-38" value="2" style="ellipse;whiteSpace=wrap;html=1;aspect=fixed;fontSize=27;fontStyle=1;spacing=2;spacingLeft=2;spacingTop=1;" parent="LBr9hsCO0pmCrkEfYy0i-36" vertex="1">
          <mxGeometry x="10" y="11.39091879088325" width="47.103155911446066" height="47.103155911446066" as="geometry" />
        </mxCell>
        <mxCell id="LBr9hsCO0pmCrkEfYy0i-39" value="Servers" style="text;html=1;align=center;verticalAlign=middle;whiteSpace=wrap;rounded=0;" parent="LBr9hsCO0pmCrkEfYy0i-36" vertex="1">
          <mxGeometry x="301.45" y="633.707030722918" width="60" height="31.322416473556064" as="geometry" />
        </mxCell>
        <mxCell id="LBr9hsCO0pmCrkEfYy0i-40" value="Load balancer" style="text;html=1;align=center;verticalAlign=middle;whiteSpace=wrap;rounded=0;" parent="LBr9hsCO0pmCrkEfYy0i-36" vertex="1">
          <mxGeometry x="140.45" y="633.7076562499999" width="90" height="31.3225" as="geometry" />
        </mxCell>
        <mxCell id="LBr9hsCO0pmCrkEfYy0i-41" value="User" style="text;html=1;align=center;verticalAlign=middle;whiteSpace=wrap;rounded=0;" parent="LBr9hsCO0pmCrkEfYy0i-36" vertex="1">
          <mxGeometry y="633.7076562499999" width="90" height="31.3225" as="geometry" />
        </mxCell>
        <mxCell id="uBw3s3g_Egiud1kMh2EL-10" value="&lt;div style=&quot;font-size: 8px;&quot;&gt;&lt;font style=&quot;font-size: 8px;&quot;&gt;&lt;br style=&quot;&quot;&gt;&lt;/font&gt;&lt;/div&gt;v2" style="verticalLabelPosition=middle;html=1;verticalAlign=top;strokeWidth=1;align=center;outlineConnect=0;dashed=0;outlineConnect=0;shape=mxgraph.aws3d.dataServer;strokeColor=#82b366;aspect=fixed;fillColor=#d5e8d4;labelPosition=center;fontStyle=1;fontSize=33;" parent="LBr9hsCO0pmCrkEfYy0i-36" vertex="1">
          <mxGeometry x="265" y="320.00374999999997" width="123" height="106" as="geometry" />
        </mxCell>
        <mxCell id="uBw3s3g_Egiud1kMh2EL-11" value="&lt;div style=&quot;font-size: 8px;&quot;&gt;&lt;font style=&quot;font-size: 8px;&quot;&gt;&lt;br style=&quot;&quot;&gt;&lt;/font&gt;&lt;/div&gt;v2" style="verticalLabelPosition=middle;html=1;verticalAlign=top;strokeWidth=1;align=center;outlineConnect=0;dashed=0;outlineConnect=0;shape=mxgraph.aws3d.dataServer;strokeColor=#82b366;aspect=fixed;fillColor=#d5e8d4;labelPosition=center;fontStyle=1;fontSize=33;" parent="LBr9hsCO0pmCrkEfYy0i-36" vertex="1">
          <mxGeometry x="267" y="415.36359375000006" width="123" height="106" as="geometry" />
        </mxCell>
        <mxCell id="uBw3s3g_Egiud1kMh2EL-12" value="&lt;div style=&quot;font-size: 8px;&quot;&gt;&lt;font style=&quot;font-size: 8px;&quot;&gt;&lt;br style=&quot;&quot;&gt;&lt;/font&gt;&lt;/div&gt;v2" style="verticalLabelPosition=middle;html=1;verticalAlign=top;strokeWidth=1;align=center;outlineConnect=0;dashed=0;outlineConnect=0;shape=mxgraph.aws3d.dataServer;strokeColor=#82b366;aspect=fixed;fillColor=#d5e8d4;labelPosition=center;fontStyle=1;fontSize=33;" parent="LBr9hsCO0pmCrkEfYy0i-36" vertex="1">
          <mxGeometry x="265" y="508.44124999999997" width="123" height="106" as="geometry" />
        </mxCell>
        <mxCell id="uBw3s3g_Egiud1kMh2EL-13" value="&lt;div style=&quot;font-size: 8px;&quot;&gt;&lt;font style=&quot;font-size: 8px;&quot;&gt;&lt;br style=&quot;&quot;&gt;&lt;/font&gt;&lt;/div&gt;v1" style="verticalLabelPosition=middle;html=1;verticalAlign=top;strokeWidth=1;align=center;outlineConnect=0;dashed=0;outlineConnect=0;shape=mxgraph.aws3d.dataServer;strokeColor=#6c8ebf;aspect=fixed;fillColor=#dae8fc;labelPosition=center;fontStyle=1;fontSize=33;" parent="1" vertex="1">
          <mxGeometry x="725.5" y="341.1" width="123" height="106" as="geometry" />
        </mxCell>
        <mxCell id="uBw3s3g_Egiud1kMh2EL-14" value="&lt;div style=&quot;font-size: 8px;&quot;&gt;&lt;font style=&quot;font-size: 8px;&quot;&gt;&lt;br style=&quot;&quot;&gt;&lt;/font&gt;&lt;/div&gt;v1" style="verticalLabelPosition=middle;html=1;verticalAlign=top;strokeWidth=1;align=center;outlineConnect=0;dashed=0;outlineConnect=0;shape=mxgraph.aws3d.dataServer;strokeColor=#6c8ebf;aspect=fixed;fillColor=#dae8fc;labelPosition=center;fontStyle=1;fontSize=33;" parent="1" vertex="1">
          <mxGeometry x="727.5" y="432.19000000000005" width="123" height="106" as="geometry" />
        </mxCell>
        <mxCell id="uBw3s3g_Egiud1kMh2EL-15" value="&lt;div style=&quot;font-size: 8px;&quot;&gt;&lt;font style=&quot;font-size: 8px;&quot;&gt;&lt;br style=&quot;&quot;&gt;&lt;/font&gt;&lt;/div&gt;v1" style="verticalLabelPosition=middle;html=1;verticalAlign=top;strokeWidth=1;align=center;outlineConnect=0;dashed=0;outlineConnect=0;shape=mxgraph.aws3d.dataServer;strokeColor=#6c8ebf;aspect=fixed;fillColor=#dae8fc;labelPosition=center;fontStyle=1;fontSize=33;" parent="1" vertex="1">
          <mxGeometry x="725.5" y="521.1" width="123" height="106" as="geometry" />
        </mxCell>
        <mxCell id="uBw3s3g_Egiud1kMh2EL-16" style="edgeStyle=orthogonalEdgeStyle;rounded=0;orthogonalLoop=1;jettySize=auto;html=1;" parent="1" source="uBw3s3g_Egiud1kMh2EL-19" target="uBw3s3g_Egiud1kMh2EL-13" edge="1">
          <mxGeometry relative="1" as="geometry" />
        </mxCell>
        <mxCell id="uBw3s3g_Egiud1kMh2EL-17" style="edgeStyle=orthogonalEdgeStyle;rounded=0;orthogonalLoop=1;jettySize=auto;html=1;" parent="1" source="uBw3s3g_Egiud1kMh2EL-19" target="uBw3s3g_Egiud1kMh2EL-14" edge="1">
          <mxGeometry relative="1" as="geometry" />
        </mxCell>
        <mxCell id="uBw3s3g_Egiud1kMh2EL-18" style="edgeStyle=orthogonalEdgeStyle;rounded=0;orthogonalLoop=1;jettySize=auto;html=1;" parent="1" source="uBw3s3g_Egiud1kMh2EL-19" target="uBw3s3g_Egiud1kMh2EL-15" edge="1">
          <mxGeometry relative="1" as="geometry" />
        </mxCell>
        <mxCell id="uBw3s3g_Egiud1kMh2EL-19" value="" style="verticalLabelPosition=bottom;html=1;verticalAlign=top;strokeWidth=1;align=center;outlineConnect=0;dashed=0;outlineConnect=0;shape=mxgraph.aws3d.elasticLoadBalancing;fillColor=#ECECEC;strokeColor=#5E5E5E;aspect=fixed;" parent="1" vertex="1">
          <mxGeometry x="585.5" y="441.11" width="92" height="88.17" as="geometry" />
        </mxCell>
        <mxCell id="uBw3s3g_Egiud1kMh2EL-20" style="edgeStyle=orthogonalEdgeStyle;rounded=0;orthogonalLoop=1;jettySize=auto;html=1;" parent="1" source="uBw3s3g_Egiud1kMh2EL-21" target="uBw3s3g_Egiud1kMh2EL-19" edge="1">
          <mxGeometry relative="1" as="geometry" />
        </mxCell>
        <mxCell id="uBw3s3g_Egiud1kMh2EL-21" value="" style="verticalLabelPosition=bottom;html=1;verticalAlign=top;strokeWidth=1;align=center;outlineConnect=0;dashed=0;outlineConnect=0;shape=mxgraph.aws3d.end_user;strokeColor=none;fillColor=#777777;aspect=fixed;" parent="1" vertex="1">
          <mxGeometry x="475.5" y="434.96000000000004" width="49" height="100.46" as="geometry" />
        </mxCell>
        <mxCell id="uBw3s3g_Egiud1kMh2EL-26" value="" style="group" parent="1" vertex="1" connectable="0">
          <mxGeometry x="880" y="330" width="400" height="670" as="geometry" />
        </mxCell>
        <mxCell id="uBw3s3g_Egiud1kMh2EL-27" value="" style="rounded=0;whiteSpace=wrap;html=1;fillColor=none;" parent="uBw3s3g_Egiud1kMh2EL-26" vertex="1">
          <mxGeometry width="400" height="670" as="geometry" />
        </mxCell>
        <mxCell id="uBw3s3g_Egiud1kMh2EL-28" value="3" style="ellipse;whiteSpace=wrap;html=1;aspect=fixed;fontSize=27;fontStyle=1;spacing=2;spacingLeft=2;spacingTop=1;" parent="uBw3s3g_Egiud1kMh2EL-26" vertex="1">
          <mxGeometry x="10" y="11.39091879088325" width="47.103155911446066" height="47.103155911446066" as="geometry" />
        </mxCell>
        <mxCell id="uBw3s3g_Egiud1kMh2EL-29" value="Servers" style="text;html=1;align=center;verticalAlign=middle;whiteSpace=wrap;rounded=0;" parent="uBw3s3g_Egiud1kMh2EL-26" vertex="1">
          <mxGeometry x="301.45" y="633.707030722918" width="60" height="31.322416473556064" as="geometry" />
        </mxCell>
        <mxCell id="uBw3s3g_Egiud1kMh2EL-30" value="Load balancer" style="text;html=1;align=center;verticalAlign=middle;whiteSpace=wrap;rounded=0;" parent="uBw3s3g_Egiud1kMh2EL-26" vertex="1">
          <mxGeometry x="140.45" y="633.7076562499999" width="90" height="31.3225" as="geometry" />
        </mxCell>
        <mxCell id="uBw3s3g_Egiud1kMh2EL-31" value="User" style="text;html=1;align=center;verticalAlign=middle;whiteSpace=wrap;rounded=0;" parent="uBw3s3g_Egiud1kMh2EL-26" vertex="1">
          <mxGeometry y="633.7076562499999" width="90" height="31.3225" as="geometry" />
        </mxCell>
        <mxCell id="uBw3s3g_Egiud1kMh2EL-32" value="&lt;div style=&quot;font-size: 8px;&quot;&gt;&lt;font style=&quot;font-size: 8px;&quot;&gt;&lt;br style=&quot;&quot;&gt;&lt;/font&gt;&lt;/div&gt;v2" style="verticalLabelPosition=middle;html=1;verticalAlign=top;strokeWidth=1;align=center;outlineConnect=0;dashed=0;outlineConnect=0;shape=mxgraph.aws3d.dataServer;strokeColor=#82b366;aspect=fixed;fillColor=#d5e8d4;labelPosition=center;fontStyle=1;fontSize=33;" parent="uBw3s3g_Egiud1kMh2EL-26" vertex="1">
          <mxGeometry x="265" y="320.00374999999997" width="123" height="106" as="geometry" />
        </mxCell>
        <mxCell id="uBw3s3g_Egiud1kMh2EL-33" value="&lt;div style=&quot;font-size: 8px;&quot;&gt;&lt;font style=&quot;font-size: 8px;&quot;&gt;&lt;br style=&quot;&quot;&gt;&lt;/font&gt;&lt;/div&gt;v2" style="verticalLabelPosition=middle;html=1;verticalAlign=top;strokeWidth=1;align=center;outlineConnect=0;dashed=0;outlineConnect=0;shape=mxgraph.aws3d.dataServer;strokeColor=#82b366;aspect=fixed;fillColor=#d5e8d4;labelPosition=center;fontStyle=1;fontSize=33;" parent="uBw3s3g_Egiud1kMh2EL-26" vertex="1">
          <mxGeometry x="267" y="415.36359375000006" width="123" height="106" as="geometry" />
        </mxCell>
        <mxCell id="uBw3s3g_Egiud1kMh2EL-34" value="&lt;div style=&quot;font-size: 8px;&quot;&gt;&lt;font style=&quot;font-size: 8px;&quot;&gt;&lt;br style=&quot;&quot;&gt;&lt;/font&gt;&lt;/div&gt;v2" style="verticalLabelPosition=middle;html=1;verticalAlign=top;strokeWidth=1;align=center;outlineConnect=0;dashed=0;outlineConnect=0;shape=mxgraph.aws3d.dataServer;strokeColor=#82b366;aspect=fixed;fillColor=#d5e8d4;labelPosition=center;fontStyle=1;fontSize=33;" parent="uBw3s3g_Egiud1kMh2EL-26" vertex="1">
          <mxGeometry x="265" y="508.44124999999997" width="123" height="106" as="geometry" />
        </mxCell>
        <mxCell id="uBw3s3g_Egiud1kMh2EL-41" style="edgeStyle=orthogonalEdgeStyle;rounded=0;orthogonalLoop=1;jettySize=auto;html=1;" parent="1" source="uBw3s3g_Egiud1kMh2EL-43" target="uBw3s3g_Egiud1kMh2EL-33" edge="1">
          <mxGeometry relative="1" as="geometry">
            <Array as="points">
              <mxPoint x="1120" y="485" />
              <mxPoint x="1120" y="798" />
            </Array>
          </mxGeometry>
        </mxCell>
        <mxCell id="uBw3s3g_Egiud1kMh2EL-42" style="edgeStyle=orthogonalEdgeStyle;rounded=0;orthogonalLoop=1;jettySize=auto;html=1;" parent="1" source="uBw3s3g_Egiud1kMh2EL-43" target="uBw3s3g_Egiud1kMh2EL-34" edge="1">
          <mxGeometry relative="1" as="geometry">
            <Array as="points">
              <mxPoint x="1120" y="485" />
              <mxPoint x="1120" y="891" />
            </Array>
          </mxGeometry>
        </mxCell>
        <mxCell id="uBw3s3g_Egiud1kMh2EL-43" value="" style="verticalLabelPosition=bottom;html=1;verticalAlign=top;strokeWidth=1;align=center;outlineConnect=0;dashed=0;outlineConnect=0;shape=mxgraph.aws3d.elasticLoadBalancing;fillColor=#ECECEC;strokeColor=#5E5E5E;aspect=fixed;" parent="1" vertex="1">
          <mxGeometry x="1005.5" y="441.11" width="92" height="88.17" as="geometry" />
        </mxCell>
        <mxCell id="uBw3s3g_Egiud1kMh2EL-44" style="edgeStyle=orthogonalEdgeStyle;rounded=0;orthogonalLoop=1;jettySize=auto;html=1;" parent="1" source="uBw3s3g_Egiud1kMh2EL-45" target="uBw3s3g_Egiud1kMh2EL-43" edge="1">
          <mxGeometry relative="1" as="geometry" />
        </mxCell>
        <mxCell id="uBw3s3g_Egiud1kMh2EL-45" value="" style="verticalLabelPosition=bottom;html=1;verticalAlign=top;strokeWidth=1;align=center;outlineConnect=0;dashed=0;outlineConnect=0;shape=mxgraph.aws3d.end_user;strokeColor=none;fillColor=#777777;aspect=fixed;" parent="1" vertex="1">
          <mxGeometry x="895.5" y="434.96000000000004" width="49" height="100.46" as="geometry" />
        </mxCell>
        <mxCell id="uBw3s3g_Egiud1kMh2EL-46" style="edgeStyle=orthogonalEdgeStyle;rounded=0;orthogonalLoop=1;jettySize=auto;html=1;" parent="1" source="uBw3s3g_Egiud1kMh2EL-43" target="uBw3s3g_Egiud1kMh2EL-32" edge="1">
          <mxGeometry relative="1" as="geometry">
            <mxPoint x="1099.5" y="485.2011173184359" as="sourcePoint" />
            <mxPoint x="1147" y="703" as="targetPoint" />
            <Array as="points">
              <mxPoint x="1120" y="485" />
              <mxPoint x="1120" y="703" />
            </Array>
          </mxGeometry>
        </mxCell>
        <mxCell id="dG9uNN8KQoI7e_3bcPYV-1" value="&lt;div style=&quot;font-size: 8px;&quot;&gt;&lt;font style=&quot;font-size: 8px;&quot;&gt;&lt;br style=&quot;&quot;&gt;&lt;/font&gt;&lt;/div&gt;v1" style="verticalLabelPosition=middle;html=1;verticalAlign=top;strokeWidth=1;align=center;outlineConnect=0;dashed=0;outlineConnect=0;shape=mxgraph.aws3d.dataServer;strokeColor=#6c8ebf;aspect=fixed;fillColor=#dae8fc;labelPosition=center;fontStyle=1;fontSize=33;" vertex="1" parent="1">
          <mxGeometry x="1145.5" y="340" width="123" height="106" as="geometry" />
        </mxCell>
        <mxCell id="dG9uNN8KQoI7e_3bcPYV-2" value="&lt;div style=&quot;font-size: 8px;&quot;&gt;&lt;font style=&quot;font-size: 8px;&quot;&gt;&lt;br style=&quot;&quot;&gt;&lt;/font&gt;&lt;/div&gt;v1" style="verticalLabelPosition=middle;html=1;verticalAlign=top;strokeWidth=1;align=center;outlineConnect=0;dashed=0;outlineConnect=0;shape=mxgraph.aws3d.dataServer;strokeColor=#6c8ebf;aspect=fixed;fillColor=#dae8fc;labelPosition=center;fontStyle=1;fontSize=33;" vertex="1" parent="1">
          <mxGeometry x="1147.5" y="431.09000000000003" width="123" height="106" as="geometry" />
        </mxCell>
        <mxCell id="dG9uNN8KQoI7e_3bcPYV-3" value="&lt;div style=&quot;font-size: 8px;&quot;&gt;&lt;font style=&quot;font-size: 8px;&quot;&gt;&lt;br style=&quot;&quot;&gt;&lt;/font&gt;&lt;/div&gt;v1" style="verticalLabelPosition=middle;html=1;verticalAlign=top;strokeWidth=1;align=center;outlineConnect=0;dashed=0;outlineConnect=0;shape=mxgraph.aws3d.dataServer;strokeColor=#6c8ebf;aspect=fixed;fillColor=#dae8fc;labelPosition=center;fontStyle=1;fontSize=33;" vertex="1" parent="1">
          <mxGeometry x="1145.5" y="520" width="123" height="106" as="geometry" />
        </mxCell>
      </root>
    </mxGraphModel>
  </diagram>
</mxfile>
